STARTFONT 2.1
COMMENT 
FONT chicago12
SIZE 13 78 78
FONTBOUNDINGBOX 8 13 0 -3
STARTPROPERTIES 4
DEFAULT_CHAR 0
FONT_DESCENT 3
FONT_ASCENT 10
COPYRIGHT "Public domain font.  Share and enjoy."
ENDPROPERTIES
CHARS 128
STARTCHAR C000
ENCODING 0
SWIDTH 666 0
DWIDTH 8 0
BBX 8 13 0 -3
BITMAP
0000
0000
0000
0000
0000
0000
0000
0000
0000
0000
0000
0000
0000
ENDCHAR
STARTCHAR C001
ENCODING 1
SWIDTH 666 0
DWIDTH 8 0
BBX 8 13 0 -3
BITMAP
0000
0000
0000
0000
1000
3800
7c00
fe00
7c00
3800
1000
0000
0000
ENDCHAR
STARTCHAR C002
ENCODING 2
SWIDTH 666 0
DWIDTH 8 0
BBX 8 13 0 -3
BITMAP
0000
0000
0000
0000
9200
4400
9200
4400
9200
4400
9200
0000
0000
ENDCHAR
STARTCHAR C003
ENCODING 3
SWIDTH 666 0
DWIDTH 8 0
BBX 8 13 0 -3
BITMAP
0000
0000
0000
0000
8800
8800
f800
8800
8800
3e00
0800
0800
0800
ENDCHAR
STARTCHAR C004
ENCODING 4
SWIDTH 666 0
DWIDTH 8 0
BBX 8 13 0 -3
BITMAP
0000
0000
0000
0000
f000
8000
e000
8000
9e00
1000
1c00
1000
1000
ENDCHAR
STARTCHAR C005
ENCODING 5
SWIDTH 666 0
DWIDTH 8 0
BBX 8 13 0 -3
BITMAP
0000
0000
0000
0000
7800
8000
8000
7800
3c00
2200
3c00
2200
2200
ENDCHAR
STARTCHAR C006
ENCODING 6
SWIDTH 666 0
DWIDTH 8 0
BBX 8 13 0 -3
BITMAP
0000
0000
0000
0000
8000
8000
8000
f800
3e00
2000
3c00
2000
2000
ENDCHAR
STARTCHAR C007
ENCODING 7
SWIDTH 666 0
DWIDTH 8 0
BBX 8 13 0 -3
BITMAP
0000
0000
0000
0000
3800
4400
4400
3800
0000
0000
0000
0000
0000
ENDCHAR
STARTCHAR C010
ENCODING 8
SWIDTH 666 0
DWIDTH 8 0
BBX 8 13 0 -3
BITMAP
0000
0000
0000
0000
0000
1000
1000
fe00
1000
1000
fe00
0000
0000
ENDCHAR
STARTCHAR C011
ENCODING 9
SWIDTH 666 0
DWIDTH 8 0
BBX 8 13 0 -3
BITMAP
0000
0000
0000
0000
8800
c800
a800
9800
8800
2000
2000
2000
3e00
ENDCHAR
STARTCHAR C012
ENCODING 10
SWIDTH 666 0
DWIDTH 8 0
BBX 8 13 0 -3
BITMAP
0000
0000
0000
0000
8800
8800
5000
2000
3e00
0800
0800
0800
0800
ENDCHAR
STARTCHAR C013
ENCODING 11
SWIDTH 666 0
DWIDTH 8 0
BBX 8 13 0 -3
BITMAP
1000
1000
1000
1000
1000
1000
1000
f000
0000
0000
0000
0000
0000
ENDCHAR
STARTCHAR C014
ENCODING 12
SWIDTH 666 0
DWIDTH 8 0
BBX 8 13 0 -3
BITMAP
0000
0000
0000
0000
0000
0000
0000
f000
1000
1000
1000
1000
1000
ENDCHAR
STARTCHAR C015
ENCODING 13
SWIDTH 666 0
DWIDTH 8 0
BBX 8 13 0 -3
BITMAP
0000
0000
0000
0000
0000
0000
0000
1f00
1000
1000
1000
1000
1000
ENDCHAR
STARTCHAR C016
ENCODING 14
SWIDTH 666 0
DWIDTH 8 0
BBX 8 13 0 -3
BITMAP
1000
1000
1000
1000
1000
1000
1000
1f00
0000
0000
0000
0000
0000
ENDCHAR
STARTCHAR C017
ENCODING 15
SWIDTH 666 0
DWIDTH 8 0
BBX 8 13 0 -3
BITMAP
1000
1000
1000
1000
1000
1000
1000
ff00
1000
1000
1000
1000
1000
ENDCHAR
STARTCHAR C020
ENCODING 16
SWIDTH 666 0
DWIDTH 8 0
BBX 8 13 0 -3
BITMAP
0000
0000
0000
ff00
0000
0000
0000
0000
0000
0000
0000
0000
0000
ENDCHAR
STARTCHAR C021
ENCODING 17
SWIDTH 666 0
DWIDTH 8 0
BBX 8 13 0 -3
BITMAP
0000
0000
0000
0000
0000
ff00
0000
0000
0000
0000
0000
0000
0000
ENDCHAR
STARTCHAR C022
ENCODING 18
SWIDTH 666 0
DWIDTH 8 0
BBX 8 13 0 -3
BITMAP
0000
0000
0000
0000
0000
0000
0000
ff00
0000
0000
0000
0000
0000
ENDCHAR
STARTCHAR C023
ENCODING 19
SWIDTH 666 0
DWIDTH 8 0
BBX 8 13 0 -3
BITMAP
0000
0000
0000
0000
0000
0000
0000
0000
0000
ff00
0000
0000
0000
ENDCHAR
STARTCHAR C024
ENCODING 20
SWIDTH 666 0
DWIDTH 8 0
BBX 8 13 0 -3
BITMAP
0000
0000
0000
0000
0000
0000
0000
0000
0000
0000
0000
ff00
0000
ENDCHAR
STARTCHAR C025
ENCODING 21
SWIDTH 666 0
DWIDTH 8 0
BBX 8 13 0 -3
BITMAP
1000
1000
1000
1000
1000
1000
1000
1f00
1000
1000
1000
1000
1000
ENDCHAR
STARTCHAR C026
ENCODING 22
SWIDTH 666 0
DWIDTH 8 0
BBX 8 13 0 -3
BITMAP
1000
1000
1000
1000
1000
1000
1000
f000
1000
1000
1000
1000
1000
ENDCHAR
STARTCHAR C027
ENCODING 23
SWIDTH 666 0
DWIDTH 8 0
BBX 8 13 0 -3
BITMAP
1000
1000
1000
1000
1000
1000
1000
ff00
0000
0000
0000
0000
0000
ENDCHAR
STARTCHAR C030
ENCODING 24
SWIDTH 666 0
DWIDTH 8 0
BBX 8 13 0 -3
BITMAP
0000
0000
0000
0000
0000
0000
0000
ff00
1000
1000
1000
1000
1000
ENDCHAR
STARTCHAR C031
ENCODING 25
SWIDTH 666 0
DWIDTH 8 0
BBX 8 13 0 -3
BITMAP
1000
1000
1000
1000
1000
1000
1000
1000
1000
1000
1000
1000
1000
ENDCHAR
STARTCHAR C032
ENCODING 26
SWIDTH 666 0
DWIDTH 8 0
BBX 8 13 0 -3
BITMAP
0000
0000
0000
0000
0200
0800
2000
8000
2000
0800
0200
fe00
0000
ENDCHAR
STARTCHAR C033
ENCODING 27
SWIDTH 666 0
DWIDTH 8 0
BBX 8 13 0 -3
BITMAP
0000
0000
0000
0000
8000
2000
0800
0200
0800
2000
8000
fe00
0000
ENDCHAR
STARTCHAR C034
ENCODING 28
SWIDTH 666 0
DWIDTH 8 0
BBX 8 13 0 -3
BITMAP
0000
0000
0000
0000
0000
0000
7e00
2400
2400
2400
4400
0000
0000
ENDCHAR
STARTCHAR C035
ENCODING 29
SWIDTH 666 0
DWIDTH 8 0
BBX 8 13 0 -3
BITMAP
0000
0000
0000
0000
0200
0400
fe00
1000
fe00
4000
8000
0000
0000
ENDCHAR
STARTCHAR C036
ENCODING 30
SWIDTH 666 0
DWIDTH 10 0
BBX 10 13 0 -3
BITMAP
0600
0c00
0800
7700
ff80
fe00
fe00
ff80
ff80
7f00
3600
0000
0000
ENDCHAR
STARTCHAR C037
ENCODING 31
SWIDTH 666 0
DWIDTH 8 0
BBX 8 13 0 -3
BITMAP
0000
0000
0000
0000
0000
0000
0000
1000
0000
0000
0000
0000
0000
ENDCHAR
STARTCHAR C040
ENCODING 32
SWIDTH 666 0
DWIDTH 4 0
BBX 4 13 0 -3
BITMAP
0000
0000
0000
0000
0000
0000
0000
0000
0000
0000
0000
0000
0000
ENDCHAR
STARTCHAR !
ENCODING 33
SWIDTH 666 0
DWIDTH 5 0
BBX 5 13 0 -3
BITMAP
0000
3000
3000
3000
3000
3000
3000
0000
3000
3000
0000
0000
0000
ENDCHAR
STARTCHAR "
ENCODING 34
SWIDTH 666 0
DWIDTH 5 0
BBX 5 13 0 -3
BITMAP
0000
5000
5000
5000
0000
0000
0000
0000
0000
0000
0000
0000
0000
ENDCHAR
STARTCHAR #
ENCODING 35
SWIDTH 666 0
DWIDTH 10 0
BBX 10 13 0 -3
BITMAP
0900
0900
3f80
1200
1200
7f00
2400
2400
0000
0000
0000
0000
0000
ENDCHAR
STARTCHAR $
ENCODING 36
SWIDTH 666 0
DWIDTH 7 0
BBX 7 13 0 -3
BITMAP
1000
3800
5400
7000
7000
3800
1c00
1c00
5400
3800
1000
0000
0000
ENDCHAR
STARTCHAR %
ENCODING 37
SWIDTH 666 0
DWIDTH 11 0
BBX 11 13 0 -3
BITMAP
3700
4900
4a00
3200
0400
0400
0980
0a40
1240
1180
0000
0000
0000
ENDCHAR
STARTCHAR &
ENCODING 38
SWIDTH 666 0
DWIDTH 9 0
BBX 9 13 0 -3
BITMAP
0000
3c00
6600
6600
3000
6700
6600
6600
6600
3c00
0000
0000
0000
ENDCHAR
STARTCHAR '
ENCODING 39
SWIDTH 666 0
DWIDTH 3 0
BBX 3 13 0 -3
BITMAP
0000
4000
4000
4000
0000
0000
0000
0000
0000
0000
0000
0000
0000
ENDCHAR
STARTCHAR (
ENCODING 40
SWIDTH 666 0
DWIDTH 5 0
BBX 5 13 0 -3
BITMAP
1000
2000
6000
6000
6000
6000
6000
6000
6000
2000
1000
0000
0000
ENDCHAR
STARTCHAR )
ENCODING 41
SWIDTH 666 0
DWIDTH 5 0
BBX 5 13 0 -3
BITMAP
4000
2000
3000
3000
3000
3000
3000
3000
3000
2000
4000
0000
0000
ENDCHAR
STARTCHAR *
ENCODING 42
SWIDTH 666 0
DWIDTH 7 0
BBX 7 13 0 -3
BITMAP
0000
1000
5400
3800
5400
1000
0000
0000
0000
0000
0000
0000
0000
ENDCHAR
STARTCHAR +
ENCODING 43
SWIDTH 666 0
DWIDTH 7 0
BBX 7 13 0 -3
BITMAP
0000
0000
0000
1000
1000
7c00
1000
1000
0000
0000
0000
0000
0000
ENDCHAR
STARTCHAR ,
ENCODING 44
SWIDTH 666 0
DWIDTH 4 0
BBX 4 13 0 -3
BITMAP
0000
0000
0000
0000
0000
0000
0000
0000
6000
6000
2000
4000
0000
ENDCHAR
STARTCHAR -
ENCODING 45
SWIDTH 666 0
DWIDTH 7 0
BBX 7 13 0 -3
BITMAP
0000
0000
0000
0000
0000
7c00
0000
0000
0000
0000
0000
0000
0000
ENDCHAR
STARTCHAR .
ENCODING 46
SWIDTH 666 0
DWIDTH 5 0
BBX 5 13 0 -3
BITMAP
0000
0000
0000
0000
0000
0000
0000
0000
3000
3000
0000
0000
0000
ENDCHAR
STARTCHAR /
ENCODING 47
SWIDTH 666 0
DWIDTH 7 0
BBX 7 13 0 -3
BITMAP
0400
0400
0800
0800
1000
1000
2000
2000
4000
4000
0000
0000
0000
ENDCHAR
STARTCHAR 0
ENCODING 48
SWIDTH 666 0
DWIDTH 8 0
BBX 8 13 0 -3
BITMAP
0000
3c00
6600
6600
6600
6600
6600
6600
6600
3c00
0000
0000
0000
ENDCHAR
STARTCHAR 1
ENCODING 49
SWIDTH 666 0
DWIDTH 5 0
BBX 5 13 0 -3
BITMAP
0000
3000
7000
3000
3000
3000
3000
3000
3000
3000
0000
0000
0000
ENDCHAR
STARTCHAR 2
ENCODING 50
SWIDTH 666 0
DWIDTH 8 0
BBX 8 13 0 -3
BITMAP
0000
3c00
4600
0600
0600
0c00
1800
3000
6000
7e00
0000
0000
0000
ENDCHAR
STARTCHAR 3
ENCODING 51
SWIDTH 666 0
DWIDTH 8 0
BBX 8 13 0 -3
BITMAP
0000
7e80
0c00
1800
3c00
0600
0600
0600
4600
3c00
0000
0000
0000
ENDCHAR
STARTCHAR 4
ENCODING 52
SWIDTH 666 0
DWIDTH 9 0
BBX 9 13 0 -3
BITMAP
0000
0600
0e00
1600
2600
4600
7f00
0600
0600
0600
0000
0000
0000
ENDCHAR
STARTCHAR 5
ENCODING 53
SWIDTH 666 0
DWIDTH 8 0
BBX 8 13 0 -3
BITMAP
0000
7e00
6000
6000
7c00
0600
0600
0600
4600
3c00
0000
0000
0000
ENDCHAR
STARTCHAR 6
ENCODING 54
SWIDTH 666 0
DWIDTH 8 0
BBX 8 13 0 -3
BITMAP
0000
1c00
3000
6000
7c00
6600
6600
6600
6600
3c00
0000
0000
0000
ENDCHAR
STARTCHAR 7
ENCODING 55
SWIDTH 666 0
DWIDTH 8 0
BBX 8 13 0 -3
BITMAP
0000
7e00
0600
0600
0600
0c00
1800
1800
1800
1800
0000
0000
0000
ENDCHAR
STARTCHAR 8
ENCODING 56
SWIDTH 666 0
DWIDTH 8 0
BBX 8 13 0 -3
BITMAP
0000
3c00
6600
6600
6600
3c00
6600
6600
6600
3c00
0000
0000
0000
ENDCHAR
STARTCHAR 9
ENCODING 57
SWIDTH 666 0
DWIDTH 8 0
BBX 8 13 0 -3
BITMAP
0000
3c00
6600
6600
6600
6600
3e00
0600
0c00
3800
0000
0000
0000
ENDCHAR
STARTCHAR :
ENCODING 58
SWIDTH 666 0
DWIDTH 4 0
BBX 4 13 0 -3
BITMAP
0000
0000
0000
6000
6000
0000
0000
0000
6000
6000
0000
0000
0000
ENDCHAR
STARTCHAR ;
ENCODING 59
SWIDTH 666 0
DWIDTH 4 0
BBX 4 13 0 -3
BITMAP
0000
0000
0000
6000
6000
0000
0000
0000
6000
6000
2000
4000
0000
ENDCHAR
STARTCHAR <
ENCODING 60
SWIDTH 666 0
DWIDTH 7 0
BBX 7 13 0 -3
BITMAP
0000
0000
0c00
1800
3000
6000
3000
1800
0c00
0000
0000
0000
0000
ENDCHAR
STARTCHAR =
ENCODING 61
SWIDTH 666 0
DWIDTH 7 0
BBX 7 13 0 -3
BITMAP
0000
0000
0000
0000
7c00
0000
7c00
0000
0000
0000
0000
0000
0000
ENDCHAR
STARTCHAR >
ENCODING 62
SWIDTH 666 0
DWIDTH 7 0
BBX 7 13 0 -3
BITMAP
0000
0000
6000
3000
1800
0c00
1800
3000
6000
0000
0000
0000
0000
ENDCHAR
STARTCHAR ?
ENCODING 63
SWIDTH 666 0
DWIDTH 8 0
BBX 8 13 0 -3
BITMAP
0000
3c00
4600
0600
0c00
1800
1800
0000
1800
1800
0000
0000
0000
ENDCHAR
STARTCHAR @
ENCODING 64
SWIDTH 666 0
DWIDTH 11 0
BBX 11 13 0 -3
BITMAP
0000
0000
1f00
2080
4e40
5240
5240
4d80
2000
1f00
0000
0000
0000
ENDCHAR
STARTCHAR A
ENCODING 65
SWIDTH 666 0
DWIDTH 8 0
BBX 8 13 0 -3
BITMAP
0000
3c00
6600
6600
6600
6600
7e00
6600
6600
6600
0000
0000
0000
ENDCHAR
STARTCHAR B
ENCODING 66
SWIDTH 666 0
DWIDTH 8 0
BBX 8 13 0 -3
BITMAP
0000
7c00
6600
6600
6600
7c00
6600
6600
6600
7c00
0000
0000
0000
ENDCHAR
STARTCHAR C
ENCODING 67
SWIDTH 666 0
DWIDTH 8 0
BBX 8 13 0 -3
BITMAP
0000
3c00
6200
6000
6000
6000
6000
6000
6200
3c00
0000
0000
0000
ENDCHAR
STARTCHAR D
ENCODING 68
SWIDTH 666 0
DWIDTH 8 0
BBX 8 13 0 -3
BITMAP
0000
7c00
6600
6600
6600
6600
6600
6600
6600
7c00
0000
0000
0000
ENDCHAR
STARTCHAR E
ENCODING 69
SWIDTH 666 0
DWIDTH 7 0
BBX 7 13 0 -3
BITMAP
0000
7c00
6000
6000
6000
7800
6000
6000
6000
7c00
0000
0000
0000
ENDCHAR
STARTCHAR F
ENCODING 70
SWIDTH 666 0
DWIDTH 6 0
BBX 6 13 0 -3
BITMAP
0000
7c00
6000
6000
6000
7800
6000
6000
6000
6000
0000
0000
0000
ENDCHAR
STARTCHAR G
ENCODING 71
SWIDTH 666 0
DWIDTH 8 0
BBX 8 13 0 -3
BITMAP
0000
3c00
6200
6000
6000
6e00
6600
6600
6600
3e00
0000
0000
0000
ENDCHAR
STARTCHAR H
ENCODING 72
SWIDTH 666 0
DWIDTH 8 0
BBX 8 13 0 -3
BITMAP
0000
6600
6600
6600
6600
7e00
6600
6600
6600
6600
0000
0000
0000
ENDCHAR
STARTCHAR I
ENCODING 73
SWIDTH 666 0
DWIDTH 4 0
BBX 4 13 0 -3
BITMAP
0000
6000
6000
6000
6000
6000
6000
6000
6000
6000
0000
0000
0000
ENDCHAR
STARTCHAR J
ENCODING 74
SWIDTH 666 0
DWIDTH 8 0
BBX 8 13 0 -3
BITMAP
0000
0600
0600
0600
0600
0600
0600
6600
6600
3c00
0000
0000
0000
ENDCHAR
STARTCHAR K
ENCODING 75
SWIDTH 666 0
DWIDTH 9 0
BBX 9 13 0 -3
BITMAP
0000
6300
6600
6c00
7800
7000
7800
6c00
6600
6300
0000
0000
0000
ENDCHAR
STARTCHAR L
ENCODING 76
SWIDTH 666 0
DWIDTH 7 0
BBX 7 13 0 -3
BITMAP
0000
6000
6000
6000
6000
6000
6000
6000
6000
7c00
0000
0000
0000
ENDCHAR
STARTCHAR M
ENCODING 77
SWIDTH 666 0
DWIDTH 12 0
BBX 12 13 0 -3
BITMAP
0000
4020
6060
70e0
79e0
5f60
4e60
4460
4060
4060
0000
0000
0000
ENDCHAR
STARTCHAR N
ENCODING 78
SWIDTH 666 0
DWIDTH 9 0
BBX 9 13 0 -3
BITMAP
0000
4100
6100
7100
7900
5d00
4f00
4700
4300
4100
0000
0000
0000
ENDCHAR
STARTCHAR O
ENCODING 79
SWIDTH 666 0
DWIDTH 8 0
BBX 8 13 0 -3
BITMAP
0000
3c00
6600
6600
6600
6600
6600
6600
6600
3c00
0000
0000
0000
ENDCHAR
STARTCHAR P
ENCODING 80
SWIDTH 666 0
DWIDTH 8 0
BBX 8 13 0 -3
BITMAP
0000
7c00
6600
6600
6600
7c00
6000
6000
6000
6000
0000
0000
0000
ENDCHAR
STARTCHAR Q
ENCODING 81
SWIDTH 666 0
DWIDTH 8 0
BBX 8 13 0 -3
BITMAP
0000
3c00
6600
6600
6600
6600
6600
6600
6600
3c00
0600
0000
0000
ENDCHAR
STARTCHAR R
ENCODING 82
SWIDTH 666 0
DWIDTH 8 0
BBX 8 13 0 -3
BITMAP
0000
7c00
6600
6600
6600
7c00
6600
6600
6600
6600
0000
0000
0000
ENDCHAR
STARTCHAR S
ENCODING 83
SWIDTH 666 0
DWIDTH 7 0
BBX 7 13 0 -3
BITMAP
0000
3800
6400
6000
7000
3800
1c00
0c00
4c00
3800
0000
0000
0000
ENDCHAR
STARTCHAR T
ENCODING 84
SWIDTH 666 0
DWIDTH 7 0
BBX 7 13 0 -3
BITMAP
0000
7e00
1800
1800
1800
1800
1800
1800
1800
1800
0000
0000
0000
ENDCHAR
STARTCHAR U
ENCODING 85
SWIDTH 666 0
DWIDTH 8 0
BBX 8 13 0 -3
BITMAP
0000
6600
6600
6600
6600
6600
6600
6600
6600
3c00
0000
0000
0000
ENDCHAR
STARTCHAR V
ENCODING 86
SWIDTH 666 0
DWIDTH 8 0
BBX 8 13 0 -3
BITMAP
0000
6600
6600
6600
6600
6600
6600
6600
6400
7800
0000
0000
0000
ENDCHAR
STARTCHAR W
ENCODING 87
SWIDTH 666 0
DWIDTH 12 0
BBX 12 13 0 -3
BITMAP
0000
6660
6660
6660
6660
6660
6660
6660
6660
7fc0
0000
0000
0000
ENDCHAR
STARTCHAR X
ENCODING 88
SWIDTH 666 0
DWIDTH 8 0
BBX 8 13 0 -3
BITMAP
0000
6600
6600
6600
6600
3c00
6600
6600
6600
6600
0000
0000
0000
ENDCHAR
STARTCHAR Y
ENCODING 89
SWIDTH 666 0
DWIDTH 8 0
BBX 8 13 0 -3
BITMAP
0000
6600
6600
6600
6600
3c00
1800
1800
1800
1800
0000
0000
0000
ENDCHAR
STARTCHAR Z
ENCODING 90
SWIDTH 666 0
DWIDTH 8 0
BBX 8 13 0 -3
BITMAP
0000
7e00
0600
0600
0c00
1800
3000
6000
6000
7e00
0000
0000
0000
ENDCHAR
STARTCHAR [
ENCODING 91
SWIDTH 666 0
DWIDTH 5 0
BBX 5 13 0 -3
BITMAP
7000
6000
6000
6000
6000
6000
6000
6000
6000
6000
7000
0000
0000
ENDCHAR
STARTCHAR \
ENCODING 92
SWIDTH 666 0
DWIDTH 7 0
BBX 7 13 0 -3
BITMAP
4000
4000
2000
2000
1000
1000
0800
0800
0400
0400
0000
0000
0000
ENDCHAR
STARTCHAR ]
ENCODING 93
SWIDTH 666 0
DWIDTH 5 0
BBX 5 13 0 -3
BITMAP
7000
3000
3000
3000
3000
3000
3000
3000
3000
3000
7000
0000
0000
ENDCHAR
STARTCHAR ^
ENCODING 94
SWIDTH 666 0
DWIDTH 7 0
BBX 7 13 0 -3
BITMAP
0000
1000
2800
4400
0000
0000
0000
0000
0000
0000
0000
0000
0000
ENDCHAR
STARTCHAR _
ENCODING 95
SWIDTH 666 0
DWIDTH 8 0
BBX 8 13 0 -3
BITMAP
0000
0000
0000
0000
0000
0000
0000
0000
0000
ff00
0000
0000
0000
ENDCHAR
STARTCHAR `
ENCODING 96
SWIDTH 666 0
DWIDTH 5 0
BBX 5 13 0 -3
BITMAP
0000
4000
2000
1000
0000
0000
0000
0000
0000
0000
0000
0000
0000
ENDCHAR
STARTCHAR a
ENCODING 97
SWIDTH 666 0
DWIDTH 8 0
BBX 8 13 0 -3
BITMAP
0000
0000
0000
3c00
4600
3e00
6600
6600
6600
3e00
0000
0000
0000
ENDCHAR
STARTCHAR b
ENCODING 98
SWIDTH 666 0
DWIDTH 8 0
BBX 8 13 0 -3
BITMAP
0000
6000
6000
7c00
6600
6600
6600
6600
6600
7c00
0000
0000
0000
ENDCHAR
STARTCHAR c
ENCODING 99
SWIDTH 666 0
DWIDTH 8 0
BBX 8 13 0 -3
BITMAP
0000
0000
0000
3c00
6200
6000
6000
6000
6200
3c00
0000
0000
0000
ENDCHAR
STARTCHAR d
ENCODING 100
SWIDTH 666 0
DWIDTH 8 0
BBX 8 13 0 -3
BITMAP
0000
0600
0600
3e00
6600
6600
6600
6600
6600
3e00
0000
0000
0000
ENDCHAR
STARTCHAR e
ENCODING 101
SWIDTH 666 0
DWIDTH 8 0
BBX 8 13 0 -3
BITMAP
0000
0000
0000
3c00
6600
6600
7e00
6000
6200
3c00
0000
0000
0000
ENDCHAR
STARTCHAR f
ENCODING 102
SWIDTH 666 0
DWIDTH 7 0
BBX 7 13 0 -3
BITMAP
0000
1c00
3000
7800
3000
3000
3000
3000
3000
3000
0000
0000
0000
ENDCHAR
STARTCHAR g
ENCODING 103
SWIDTH 666 0
DWIDTH 8 0
BBX 8 13 0 -3
BITMAP
0000
0000
0000
3e00
6600
6600
6600
6600
6600
3e00
0600
4600
3c00
ENDCHAR
STARTCHAR h
ENCODING 104
SWIDTH 666 0
DWIDTH 8 0
BBX 8 13 0 -3
BITMAP
0000
6000
6000
7c00
6600
6600
6600
6600
6600
6600
0000
0000
0000
ENDCHAR
STARTCHAR i
ENCODING 105
SWIDTH 666 0
DWIDTH 4 0
BBX 4 13 0 -3
BITMAP
0000
6000
0000
6000
6000
6000
6000
6000
6000
6000
0000
0000
0000
ENDCHAR
STARTCHAR j
ENCODING 106
SWIDTH 666 0
DWIDTH 7 0
BBX 7 13 0 -3
BITMAP
0000
0c00
0000
0c00
0c00
0c00
0c00
0c00
0c00
0c00
0c00
4c00
3800
ENDCHAR
STARTCHAR k
ENCODING 107
SWIDTH 666 0
DWIDTH 8 0
BBX 8 13 0 -3
BITMAP
0000
6000
6000
6600
6c00
7800
7000
7800
6c00
6600
0000
0000
0000
ENDCHAR
STARTCHAR l
ENCODING 108
SWIDTH 666 0
DWIDTH 4 0
BBX 4 13 0 -3
BITMAP
0000
6000
6000
6000
6000
6000
6000
6000
6000
6000
0000
0000
0000
ENDCHAR
STARTCHAR m
ENCODING 109
SWIDTH 666 0
DWIDTH 12 0
BBX 12 13 0 -3
BITMAP
0000
0000
0000
7fc0
6660
6660
6660
6660
6660
6660
0000
0000
0000
ENDCHAR
STARTCHAR n
ENCODING 110
SWIDTH 666 0
DWIDTH 8 0
BBX 8 13 0 -3
BITMAP
0000
0000
0000
7c00
6600
6600
6600
6600
6600
6600
0000
0000
0000
ENDCHAR
STARTCHAR o
ENCODING 111
SWIDTH 666 0
DWIDTH 8 0
BBX 8 13 0 -3
BITMAP
0000
0000
0000
3c00
6600
6600
6600
6600
6600
3c00
0000
0000
0000
ENDCHAR
STARTCHAR p
ENCODING 112
SWIDTH 666 0
DWIDTH 8 0
BBX 8 13 0 -3
BITMAP
0000
0000
0000
7c00
6600
6600
6600
6600
6600
7c00
6000
6000
0000
ENDCHAR
STARTCHAR q
ENCODING 113
SWIDTH 666 0
DWIDTH 8 0
BBX 8 13 0 -3
BITMAP
0000
0000
0000
3e00
6600
6600
6600
6600
6600
3e00
0600
0600
0000
ENDCHAR
STARTCHAR r
ENCODING 114
SWIDTH 666 0
DWIDTH 6 0
BBX 6 13 0 -3
BITMAP
0000
0000
0000
6c00
7000
6000
6000
6000
6000
6000
0000
0000
0000
ENDCHAR
STARTCHAR s
ENCODING 115
SWIDTH 666 0
DWIDTH 7 0
BBX 7 13 0 -3
BITMAP
0000
0000
0000
3800
6400
7000
3800
1c00
4c00
3800
0000
0000
0000
ENDCHAR
STARTCHAR t
ENCODING 116
SWIDTH 666 0
DWIDTH 7 0
BBX 7 13 0 -3
BITMAP
0000
3000
3000
7800
3000
3000
3000
3000
3000
1800
0000
0000
0000
ENDCHAR
STARTCHAR u
ENCODING 117
SWIDTH 666 0
DWIDTH 8 0
BBX 8 13 0 -3
BITMAP
0000
0000
0000
6600
6600
6600
6600
6600
6600
3e00
0000
0000
0000
ENDCHAR
STARTCHAR v
ENCODING 118
SWIDTH 666 0
DWIDTH 8 0
BBX 8 13 0 -3
BITMAP
0000
0000
0000
6600
6600
6600
6600
6600
6400
7800
0000
0000
0000
ENDCHAR
STARTCHAR w
ENCODING 119
SWIDTH 666 0
DWIDTH 12 0
BBX 12 13 0 -3
BITMAP
0000
0000
0000
6660
6660
6660
6660
6660
6660
7fc0
0000
0000
0000
ENDCHAR
STARTCHAR x
ENCODING 120
SWIDTH 666 0
DWIDTH 8 0
BBX 8 13 0 -3
BITMAP
0000
0000
0000
6600
6600
6600
3c00
6600
6600
6600
0000
0000
0000
ENDCHAR
STARTCHAR y
ENCODING 121
SWIDTH 666 0
DWIDTH 8 0
BBX 8 13 0 -3
BITMAP
0000
0000
0000
6600
6600
6600
6600
6600
6600
3e00
0600
4600
3c00
ENDCHAR
STARTCHAR z
ENCODING 122
SWIDTH 666 0
DWIDTH 8 0
BBX 8 13 0 -3
BITMAP
0000
0000
0000
7e00
0600
0c00
1800
3000
6000
7e00
0000
0000
0000
ENDCHAR
STARTCHAR {
ENCODING 123
SWIDTH 666 0
DWIDTH 5 0
BBX 5 13 0 -3
BITMAP
1000
2000
2000
2000
2000
4000
2000
2000
2000
2000
1000
0000
0000
ENDCHAR
STARTCHAR |
ENCODING 124
SWIDTH 666 0
DWIDTH 3 0
BBX 3 13 0 -3
BITMAP
4000
4000
4000
4000
4000
4000
4000
4000
4000
4000
4000
0000
0000
ENDCHAR
STARTCHAR }
ENCODING 125
SWIDTH 666 0
DWIDTH 5 0
BBX 5 13 0 -3
BITMAP
4000
2000
2000
2000
2000
1000
2000
2000
2000
2000
4000
0000
0000
ENDCHAR
STARTCHAR ~
ENCODING 126
SWIDTH 666 0
DWIDTH 8 0
BBX 8 13 0 -3
BITMAP
0000
0000
3200
4c00
0000
0000
0000
0000
0000
0000
0000
0000
0000
ENDCHAR
STARTCHAR C177
ENCODING 127
SWIDTH 666 0
DWIDTH 8 0
BBX 8 13 0 -3
BITMAP
0000
0000
0000
0000
0000
0000
0000
0000
0000
0000
0000
0000
0000
ENDCHAR
ENDFONT
